# Blender v2.82 (sub 7) OBJ File: 'Ground.blend'
# www.blender.org
mtllib Ground.mtl
o Ground1
v 11.500000 0.500000 0.000000
v 11.500000 -0.500000 0.000000
v 11.500000 0.500000 -1.000000
v 11.500000 -0.500000 -1.000000
v 10.500000 0.500000 0.000000
v 10.500000 0.500000 -1.000000
v 10.500000 -0.500000 0.000000
v 10.500000 -0.500000 -1.000000
vn 1.0000 0.0000 0.0000
vn 0.0000 1.0000 0.0000
vn -1.0000 0.0000 0.0000
vn 0.0000 -1.0000 0.0000
vn 0.0000 0.0000 -1.0000
vn 0.0000 0.0000 1.0000
usemtl Material.001
s off
f 1//1 2//1 3//1
f 3//1 2//1 4//1
f 5//2 1//2 6//2
f 6//2 1//2 3//2
f 7//3 5//3 8//3
f 8//3 5//3 6//3
f 2//4 7//4 4//4
f 4//4 7//4 8//4
f 4//5 8//5 3//5
f 3//5 8//5 6//5
usemtl Material.003
f 7//6 2//6 5//6
f 5//6 2//6 1//6
o Ground1.001
v 10.500001 0.500000 0.000000
v 10.500001 -0.500000 0.000000
v 10.500001 0.500000 -1.000000
v 10.500001 -0.500000 -1.000000
v 0.500000 0.500000 0.000000
v 0.500000 0.500000 -1.000000
v 0.500000 -0.500000 0.000000
v 0.500000 -0.500000 -1.000000
vn 1.0000 0.0000 0.0000
vn -0.0000 1.0000 0.0000
vn -1.0000 0.0000 0.0000
vn -0.0000 -1.0000 0.0000
vn 0.0000 0.0000 1.0000
vn 0.0000 0.0000 -1.0000
usemtl Material.004
s off
f 9//7 10//7 11//7
f 11//7 10//7 12//7
f 13//8 9//8 14//8
f 14//8 9//8 11//8
f 15//9 13//9 16//9
f 16//9 13//9 14//9
f 10//10 15//10 12//10
f 12//10 15//10 16//10
f 15//11 10//11 13//11
f 13//11 10//11 9//11
f 12//12 16//12 11//12
f 11//12 16//12 14//12
o Ground1.003
v 0.500000 0.500000 0.000000
v 0.500000 -0.500000 0.000000
v 0.500000 0.500000 -1.000000
v 0.500000 -0.500000 -1.000000
v -0.500000 0.500000 0.000000
v -0.500000 0.500000 -1.000000
v -0.500000 -0.500000 0.000000
v -0.500000 -0.500000 -1.000000
vn 1.0000 0.0000 0.0000
vn 0.0000 1.0000 0.0000
vn -1.0000 0.0000 0.0000
vn 0.0000 -1.0000 0.0000
vn 0.0000 0.0000 -1.0000
vn 0.0000 0.0000 1.0000
usemtl Material.008
s off
f 17//13 18//13 19//13
f 19//13 18//13 20//13
f 21//14 17//14 22//14
f 22//14 17//14 19//14
f 23//15 21//15 24//15
f 24//15 21//15 22//15
f 18//16 23//16 20//16
f 20//16 23//16 24//16
f 20//17 24//17 19//17
f 19//17 24//17 22//17
usemtl Material.007
f 23//18 18//18 21//18
f 21//18 18//18 17//18
