# Blender v2.82 (sub 7) OBJ File: 'Slope20.blend'
# www.blender.org
mtllib Slope20.mtl
o Slope
v 10.500000 0.500000 3.639702
v 0.500000 0.500000 0.000000
v 10.500000 -0.500000 3.639702
v 0.500000 -0.500000 0.000000
v 11.500000 -0.500000 3.639702
v 11.500000 0.500000 3.639702
v 11.500000 0.500000 0.000000
v 11.500000 -0.500000 0.000000
vn -0.3420 0.0000 0.9397
vn 0.0000 1.0000 0.0000
vn 1.0000 0.0000 0.0000
vn 0.0000 -1.0000 0.0000
vn 0.0000 0.0000 -1.0000
vn 0.0000 0.0000 1.0000
usemtl Material
s off
f 1//1 2//1 3//1
f 3//1 2//1 4//1
f 2//2 1//2 7//2
f 7//2 1//2 6//2
f 8//3 7//3 5//3
f 5//3 7//3 6//3
f 4//4 8//4 3//4
f 3//4 8//4 5//4
f 8//5 4//5 7//5
f 7//5 4//5 2//5
usemtl Material.003
f 3//6 5//6 1//6
f 1//6 5//6 6//6
